<?xml version="1.0"?>
<svg width="6" height="8" xmlns="http://www.w3.org/2000/svg" xmlns:svg="http://www.w3.org/2000/svg" xmlns:xlink="http://www.w3.org/1999/xlink">
 <!-- Created with SVG-edit - https://github.com/SVG-Edit/svgedit-->
 <defs>
  <symbol height="8" id="svg_2" width="6" xmlns="http://www.w3.org/2000/svg" xmlns:svg="http://www.w3.org/2000/svg">
   <g class="layer">
    <title>Layer 1</title>
    <path d="m18.477152,13.776876l-0.760385,0l0,-2.02328c0,-1.915849 -1.824925,-3.473595 -4.040905,-3.473595c-2.237706,0 -4.06263,1.557746 -4.06263,3.473595l0,2.02328l-0.760385,0c-0.912462,0 -1.672848,0.62668 -1.672848,1.414505l0,5.264108c0,0.769921 0.73866,1.414505 1.672848,1.414505l9.624306,0c0.912462,0 1.672848,-0.62668 1.672848,-1.414505l0,-5.264108c0,-0.787826 -0.760385,-1.414505 -1.672848,-1.414505l-0.000001,0zm-6.886919,-2.02328c0,-1.002687 0.934188,-1.826323 2.063903,-1.826323s2.063903,0.823636 2.063903,1.826323l0,2.02328l-4.127806,0l0,-2.02328z" fill="#619f00" id="svg_1"/>
   </g>
  </symbol>
  <symbol height="15" id="svg_5" viewBox="0 0 512 512" width="15" xmlns="http://www.w3.org/2000/svg">
   <path d="m16.38,12.35l-0.35,0l0,-1.13c0,-1.07 -0.84,-1.94 -1.86,-1.94c-1.03,0 -1.87,0.87 -1.87,1.94l0,1.13l-0.35,0c-0.42,0 -0.77,0.35 -0.77,0.79l0,2.94c0,0.43 0.34,0.79 0.77,0.79l4.43,0c0.42,0 0.77,-0.35 0.77,-0.79l0,-2.94c0,-0.44 -0.35,-0.79 -0.77,-0.79zm-3.17,-1.13c0,-0.56 0.43,-1.02 0.95,-1.02s0.95,0.46 0.95,1.02l0,1.13l-1.9,0l0,-1.13z" fill="#619f00"/>
  </symbol>
 </defs>
 <g class="layer">
  <title>Layer 1</title>
  <use id="svg_3" transform="matrix(0.333333 0 0 0.333333 0 0)" x="0" xlink:href="#svg_2" y="0"/>
  <g id="svg_4"/>
  <use id="svg_6" transform="matrix(-33.4244 0 0 34.2433 16.8256 -9.16367)" x="0" xlink:href="#svg_5" y="0"/>
  <g id="svg_7"/>
 </g>
</svg>