<svg 
 xmlns="http://www.w3.org/2000/svg"
 xmlns:xlink="http://www.w3.org/1999/xlink"
 width="18px" height="12px">
<path fill-rule="evenodd"  fill="rgb(0, 0, 0)"
 d="M11.600,6.094 L17.400,1.049 L17.400,11.022 L11.600,6.094 ZM0.981,0.327 C1.198,0.124 1.488,-0.001 1.808,-0.001 L16.192,-0.001 C16.514,-0.001 16.805,0.123 17.020,0.325 L9.000,7.199 L0.981,0.327 ZM0.600,11.022 L0.600,1.053 L6.399,6.094 L0.600,11.022 ZM9.000,8.399 L11.079,6.580 L17.018,11.673 C16.802,11.875 16.512,11.999 16.192,11.999 L1.808,11.999 C1.487,11.999 1.195,11.875 0.979,11.673 L6.922,6.580 L9.000,8.399 Z"/>
</svg>