<svg 
 xmlns="http://www.w3.org/2000/svg"
 xmlns:xlink="http://www.w3.org/1999/xlink"
 width="16px" height="18px">
<path fill-rule="evenodd"  fill="rgb(184, 53, 57)"
 d="M15.434,15.531 C15.367,15.647 15.243,15.719 15.109,15.719 L0.911,15.719 C0.776,15.719 0.653,15.647 0.587,15.530 C0.520,15.413 0.522,15.269 0.591,15.153 L1.874,13.017 C2.466,12.030 2.779,10.901 2.779,9.752 L2.779,7.880 C2.779,5.516 4.357,3.518 6.515,2.873 L6.515,1.533 C6.515,0.709 7.186,0.039 8.010,0.039 C8.834,0.039 9.504,0.709 9.504,1.533 L9.504,2.873 C11.662,3.518 13.240,5.516 13.240,7.880 L13.240,9.752 C13.240,10.901 13.553,12.031 14.146,13.017 L15.429,15.154 C15.498,15.269 15.500,15.414 15.434,15.531 ZM8.010,17.959 C6.970,17.959 6.078,17.346 5.657,16.466 L10.363,16.466 C9.941,17.346 9.049,17.959 8.010,17.959 Z"/>
</svg>