<svg id="SvgjsSvg1008" xmlns="http://www.w3.org/2000/svg" version="1.1" xmlns:xlink="http://www.w3.org/1999/xlink" xmlns:svgjs="http://svgjs.com/svgjs" width="16" height="17"><defs id="SvgjsDefs1009"></defs><path id="SvgjsPath1010" d="M181 20L193 20C194.105 20 195 20.8953 195 22L195 30.9999C195 32.1045 194.105 33 193 33L181 33C179.895 33 179 32.1045 179 30.9999L179 22C179 21.63561 179.09738 21.29401 179.26755 20.9998L179 20.9998L179 18.9998C179 17.895 179.895 16.9997 181 16.9997L193 16.9997C193.366 16.9997 193.705 17.1054 194 17.2771L194 18.9998C194 18.4475 193.552 17.9997 193 17.9997L181 17.9997C180.448 17.9997 180 18.4475 180 18.9998L180 20.26743C180.29413 20.097340000000003 180.63565 20 181 20ZM180 22L180 30.9999C180 31.5522 180.448 31.9999 181 31.9999L193 31.9999C193.552 31.9999 194 31.5522 194 30.9999L194 22C194 21.4476 193.552 20.9999 193 20.9999L181 20.9999C180.448 20.9999 180 21.4476 180 22ZM190.5 24.9999C191.328 24.9999 192 25.6716 192 26.5C192 27.3284 191.328 27.9999 190.5 27.9999C189.671 27.9999 189 27.328400000000002 189 26.5C189 25.6716 189.671 24.9999 190.5 24.9999Z " fill="#ffffff" transform="matrix(1,0,0,1,-179,-16)"></path></svg>