<svg width="60" height="60" viewBox="0 0 60 60" fill="none" xmlns="http://www.w3.org/2000/svg">
<path d="M0 30C0 13.4315 13.4315 0 30 0C46.5685 0 60 13.4315 60 30C60 46.5685 46.5685 60 30 60C13.4315 60 0 46.5685 0 30Z" fill="#FFD500"/>
<path d="M43.1637 30.7061C42.9685 30.5109 42.6519 30.5109 42.4566 30.7061L39.2747 33.8881C39.0794 34.0834 39.0794 34.4 39.2747 34.5952C39.4699 34.7905 39.7865 34.7905 39.9818 34.5952L42.8102 31.7668L45.6386 34.5952C45.8339 34.7905 46.1505 34.7905 46.3457 34.5952C46.541 34.4 46.541 34.0834 46.3457 33.8881L43.1637 30.7061ZM42.3102 31.0597C42.3102 37.8824 36.7909 42.5752 29.8704 42.5752V43.5752C37.2429 43.5752 43.3102 38.5299 43.3102 31.0597H42.3102ZM29.8704 42.5752C22.95 42.5752 17.4307 37.8824 17.4307 31.0597L16.4307 31.0597C16.4307 38.5299 22.498 43.5752 29.8704 43.5752V42.5752Z" fill="#2F2F2F"/>
<path d="M16.6898 29.2943C16.885 29.4896 17.2016 29.4896 17.3969 29.2943L20.5789 26.1123C20.7741 25.917 20.7741 25.6005 20.5789 25.4052C20.3836 25.2099 20.067 25.2099 19.8718 25.4052L17.0433 28.2336L14.2149 25.4052C14.0196 25.2099 13.7031 25.2099 13.5078 25.4052C13.3125 25.6005 13.3125 25.917 13.5078 26.1123L16.6898 29.2943ZM17.5433 28.9407C17.5433 22.118 23.0626 17.4252 29.9831 17.4252V16.4252C22.6106 16.4252 16.5433 21.4706 16.5433 28.9407H17.5433ZM29.9831 17.4252C36.9035 17.4252 42.4229 22.1181 42.4229 28.9407L43.4229 28.9407C43.4229 21.4706 37.3555 16.4252 29.9831 16.4252V17.4252Z" fill="#2F2F2F"/>
<path d="M24.6195 27.3225C25.0066 27.1551 25.8643 27.0401 26.4814 27.0401C27.6216 27.0401 28.0818 27.3016 28.0818 28.243C28.0818 29.404 27.8517 29.7388 24.0547 32.699V33.5462H29.1696V32.6362H25.4773C28.7094 30.3245 29.201 29.6237 29.201 28.1698C29.201 26.5903 28.3433 26.0778 26.5546 26.0778C25.8015 26.0778 25.0066 26.2137 24.3789 26.3916L24.6195 27.3225Z" fill="#2F2F2F"/>
<path d="M33.9501 31.5483V33.5462H34.9856V31.5483H35.9898V30.6592H34.9856V26.2556H33.4585C32.3706 27.6886 31.0108 29.9166 30.2891 31.245V31.5483H33.9501ZM33.9501 30.6592H31.6279C32.0777 29.8433 33.1028 28.1488 33.9501 27.0924V30.6592Z" fill="#2F2F2F"/>
</svg>
