<svg width="814.9" height="206.3" xmlns="http://www.w3.org/2000/svg">
 <style type="text/css">.st0{fill-rule:evenodd;clip-rule:evenodd;fill:#4D4D4D;}
	.st1{fill-rule:evenodd;clip-rule:evenodd;fill:#B81706;}</style>

 <g>
  <title>background</title>
  <rect fill="none" id="canvas_background" height="208.3" width="816.9" y="-1" x="-1"/>
 </g>
 <g>
  <title>Layer 1</title>
  <g id="_x31_">
   <path id="svg_1" d="m218.8,67.6l0,-67.5l68.3,0l0,11.8l-52.6,0l0,17.8l28.4,0l0,12.3l-28.4,0l0,25.7l-15.7,0l0,-0.1zm87.8,0l0,-67.5l15.7,0l0,67.5l-15.7,0l0,0zm101,-55.9l-35.3,0l0,18.8l35.3,0c2.7,0 4.5,-0.4 5.6,-1.2c1,-0.8 1.5,-2.2 1.5,-4.2l0,-8.1c0,-1.9 -0.5,-3.2 -1.5,-4.1c-1.1,-0.8 -2.9,-1.2 -5.6,-1.2l0,0zm-50.8,55.9l0,-67.5l57.8,0c5.4,0 9.3,1 11.7,3.1c2.4,2.1 3.6,5.4 3.6,10l0,15.8c0,4.5 -1.2,7.8 -3.6,9.9c-2.4,2.1 -6.3,3.2 -11.6,3.2l-8.8,0l31.2,25.5l-22.6,0l-27.2,-25.5l-14.9,0l0,25.5l-15.6,0l0,0zm105,0l0,-67.5l69.1,0l0,11.5l-53.4,0l0,15.1l31.2,0l0,11.4l-31.2,0l0,16.8l54.1,0l0,12.7l-69.8,0z" class="st0"/>
   <path id="svg_2" d="m269.6,95l-35.3,0l0,18.9l35.3,0c2.7,0 4.5,-0.4 5.6,-1.2c1,-0.8 1.5,-2.2 1.5,-4.2l0,-8.1c0,-1.9 -0.5,-3.2 -1.5,-4.1c-1.1,-0.9 -3,-1.3 -5.6,-1.3l0,0zm-50.8,55.9l0,-67.5l57.8,0c5.4,0 9.3,1 11.7,3.1c2.4,2.1 3.6,5.4 3.6,10l0,15.8c0,4.5 -1.2,7.8 -3.6,9.9c-2.4,2.1 -6.3,3.2 -11.6,3.2l-8.8,0l31.2,25.5l-22.6,0l-27.2,-25.5l-14.9,0l0,25.5l-15.6,0l0,0zm104.9,0l0,-67.5l69.1,0l0,11.5l-53.4,0l0,15.1l31.2,0l0,11.5l-31.2,0l0,16.8l54.1,0l0,12.7l-69.8,0l0,-0.1zm157.4,-55.8l-44.2,0l0,14.5l42.2,0c6.6,0 11.1,1.1 13.4,3.4c2.3,2.3 3.5,6.5 3.5,12.6l0,9.3c0,6.1 -1.2,10.3 -3.5,12.6c-2.4,2.3 -6.8,3.4 -13.4,3.4l-41.8,0c-6.7,0 -11.1,-1.1 -13.4,-3.4c-2.3,-2.2 -3.4,-6.5 -3.4,-12.6l0,-1.8l13.9,-2.9l0,8l47.8,0l0,-15.4l-42.2,0c-6.6,0 -11,-1.1 -13.3,-3.4c-2.3,-2.3 -3.4,-6.5 -3.4,-12.6l0,-7.5c0,-6.1 1.2,-10.3 3.5,-12.5c2.3,-2.3 6.7,-3.4 13.3,-3.4l38.4,0c6.3,0 10.7,1.1 13.1,3.3c2.4,2.2 3.6,6 3.6,11.6l0,1.4l-13.9,3.3l0,-7.9l-0.2,0zm104,0.3l-42.4,0l0,42.8l42.4,0l0,-14.5l15.7,3.3l0,8c0,6.1 -1.2,10.3 -3.5,12.6c-2.4,2.2 -6.8,3.4 -13.2,3.4l-40.3,0c-6.5,0 -11,-1.1 -13.3,-3.4c-2.3,-2.2 -3.5,-6.4 -3.5,-12.6l0,-35.6c0,-6.1 1.2,-10.3 3.5,-12.5c2.3,-2.3 6.7,-3.4 13.3,-3.4l40.3,0c6.6,0 11,1.1 13.3,3.4c2.3,2.3 3.4,6.5 3.4,12.6l0,6.4l-15.7,2.5l0,-13l0,0zm63.9,-12.1l0,54.8l44.8,0l0,-54.8l15.7,0l0,51.6c0,6.1 -1.2,10.3 -3.5,12.6c-2.3,2.2 -6.7,3.4 -13.3,3.4l-42.7,0c-6.5,0 -11,-1.1 -13.3,-3.4c-2.3,-2.2 -3.5,-6.4 -3.5,-12.6l0,-51.6l15.8,0l0,0zm95.1,67.6l0,-67.5l69.1,0l0,11.5l-53.4,0l0,15.1l31.2,0l0,11.5l-31.2,0l0,16.8l54.1,0l0,12.7l-69.8,0l0,-0.1z" class="st0"/>
   <g id="svg_3">
    <path id="svg_4" d="m166.4,157.5c5.5,-3.1 8.7,-8.4 10.5,-14.3c2,-6.7 2.5,-14.4 2.5,-21.5l0,-106.6l-128.8,0l0,22.6l36.2,0l53.3,0c6.8,0 11.8,1.3 14.8,3.9c3.1,2.6 4.6,6.9 4.6,12.7l0,20.2c0,5.8 -1.6,10 -4.6,12.6c-3.1,2.7 -8,4 -14.8,4l-11.2,0l39.7,32.5l-28.7,0l-34.7,-32.5l-19,0l0,32.5l-19.7,0l0,-47.2c21.6,0 43.1,0 64.7,0c3.4,0 5.8,-0.5 7.1,-1.5c1.3,-1 1.9,-2.8 1.9,-5.4l0,-10.4c0,-2.4 -0.6,-4.1 -1.9,-5.2c-1.3,-1.1 -3.7,-1.6 -7.1,-1.6c-26.9,0 -53.7,0 -80.6,0l0,33.8l-20,0l0,-86.1l163.8,0l0,121.6c0,8.2 -0.5,17.3 -3.2,25.9l0,0c-2.9,9.3 -8.1,17.7 -17.5,23c-6.4,3.6 -16.6,8.7 -27.4,13.8c-17.1,8.1 -37.4,17.2 -45.6,20.8l-3,1.4l-3,-1.4c-8.2,-3.6 -28.5,-12.7 -45.6,-20.9c-10.9,-5.2 -21,-10.2 -27.4,-13.8c-9.4,-5.4 -14.6,-13.7 -17.5,-23c-2.6,-8.6 -3.2,-17.8 -3.2,-26l0,-121.4l15.1,0c0,40.5 0,81 0,121.6c0,7.1 0.4,14.9 2.5,21.5c1.8,6 5,11.2 10.5,14.3c5.9,3.4 15.8,8.3 26.4,13.3c16.2,7.7 33.2,15.4 42.2,19.4c9,-4 26,-11.7 42.2,-19.4c10.7,-5 20.5,-9.8 26.5,-13.2z" class="st0"/>
    <path id="svg_5" d="m142.9,159.1c-16.3,-7.7 -34.5,-15.8 -42.2,-19.2l-3,-1.4l-3,1.4c-7.7,3.4 -25.8,11.5 -42.2,19.2l3,1.4c4.9,2.3 10,4.7 14.8,6.9c11,-5.1 21.2,-9.7 27.4,-12.5c6.3,2.8 16.4,7.3 27.4,12.5c4.8,-2.2 9.8,-4.6 14.8,-6.9l3,-1.4z" class="st1"/>
   </g>
  </g>
  <g id="_x31__1_"/>
  <g id="_x31__2_"/>
  <g id="_x31__3_"/>
 </g>
</svg>