<svg width="120" height="120" viewBox="0 0 120 120" fill="none" xmlns="http://www.w3.org/2000/svg">
<path d="M0 60C0 26.8629 26.8629 0 60 0C93.1371 0 120 26.8629 120 60C120 93.1371 93.1371 120 60 120C26.8629 120 0 93.1371 0 60Z" fill="#F4F4F4"/>
<path d="M52.5591 90C52.5591 90 38 87.8317 38 70.343C38 54.6824 51.4685 41.5242 65.6328 30C65.6328 48.2797 82 51.7753 82 69.7899C82 84.455 70.2415 88.8689 66.9916 90C76.8002 72.3965 61.2989 69.2619 61.927 58.0508C41.0056 74.2059 52.5591 90 52.5591 90Z" stroke="#1C1C1C" stroke-width="2" stroke-miterlimit="10" stroke-linecap="round" stroke-linejoin="round"/>
</svg>
