<svg id="SvgjsSvg1000" xmlns="http://www.w3.org/2000/svg" version="1.1" xmlns:xlink="http://www.w3.org/1999/xlink" xmlns:svgjs="http://svgjs.com/svgjs" width="14" height="15"><defs id="SvgjsDefs1001"></defs><path id="SvgjsPath1007" d="M37 18C39.2091 18 40.9999 19.7908 40.9999 22C40.9999 24.2091 39.2091 25.9999 37 25.9999C34.7908 25.9999 32.9999 24.2091 32.9999 22C32.9999 19.7908 34.7908 18 37 18ZM33.9999 22C33.9999 23.6568 35.3431 24.9999 37 24.9999C38.6568 24.9999 39.9999 23.6568 39.9999 22C39.9999 20.3431 38.6568 18.9999 37 18.9999C35.3431 18.9999 33.9999 20.3431 33.9999 22ZM30.1007 32.9999C30.5897 29.611699999999995 33.4765 26.999799999999997 37 26.999799999999997C40.5234 26.999799999999997 43.4102 29.611699999999995 43.8991 32.9999ZM37 27.9997C34.3898 27.9997 32.1844 29.6716 31.3622 31.9997L42.6378 31.9997C41.815599999999996 29.6716 39.610099999999996 27.9997 37 27.9997Z " fill="#ffffff" transform="matrix(1,0,0,1,-30,-18)"></path></svg>