<svg width="120" height="120" viewBox="0 0 120 120" fill="none" xmlns="http://www.w3.org/2000/svg">
<path d="M0 60C0 26.8629 26.8629 0 60 0C93.1371 0 120 26.8629 120 60C120 93.1371 93.1371 120 60 120C26.8629 120 0 93.1371 0 60Z" fill="#F4F4F4"/>
<path fill-rule="evenodd" clip-rule="evenodd" d="M75.6425 38.0733C77.3664 32.8418 82.8977 29.9797 88.0074 31.7026C93.1574 33.439 96.0133 39.0327 94.304 44.2317C92.5881 49.2346 87.0573 52.1313 81.9177 50.6024C80.1669 50.0082 78.6822 48.9678 77.5531 47.6488C77.8356 45.7982 76.8468 43.9935 75.3249 43.0396C75.0139 41.4362 75.0951 39.7345 75.6425 38.0733ZM72.802 42.3614C72.6394 40.7113 72.8098 39.001 73.3631 37.3221C75.485 30.8827 82.3461 27.2609 88.7742 29.4284C95.1597 31.5815 98.7134 38.5193 96.5813 44.9894L96.577 45.0024L96.577 45.0023C94.4466 51.2279 87.5995 54.8109 81.2091 52.8956L81.5536 51.7461L81.1702 52.8832C79.3411 52.2664 77.7444 51.2571 76.4471 49.9787C75.8626 50.6518 75.0989 51.1684 74.2521 51.4327C76.3996 55.296 77.6239 59.7531 77.6239 64.4968C77.6239 79.2316 65.8118 91.2 51.2118 91.2C36.6119 91.2 24.7998 79.2316 24.7998 64.4968C24.7998 49.7621 36.6119 37.7936 51.2118 37.7936C58.0747 37.7936 64.3216 40.4382 69.0152 44.7715C69.7962 43.4206 71.2301 42.4461 72.802 42.3614ZM71.3823 51.3049C69.8559 50.6724 68.6884 49.2229 68.4521 47.5803C64.0857 43.0235 57.9723 40.1936 51.2118 40.1936C37.9633 40.1936 27.1998 51.0615 27.1998 64.4968C27.1998 77.9321 37.9633 88.8 51.2118 88.8C64.4604 88.8 75.2239 77.9321 75.2239 64.4968C75.2239 59.6314 73.8123 55.1027 71.3823 51.3049ZM74.8752 48.0879C74.418 48.8376 73.6148 49.2542 72.8752 49.2174C72.2502 48.3132 71.5713 47.4499 70.843 46.6323C70.8612 46.5289 70.8883 46.4272 70.925 46.3284C71.3254 45.2483 72.3797 44.6544 73.2896 44.781C73.652 45.9559 74.1875 47.0711 74.8752 48.0879ZM60.0494 52.5147C54.7165 48.5275 47.4785 48.5044 42.3275 52.7675C42.0681 52.9821 41.9109 53.2959 41.8941 53.6321C41.8773 53.9683 42.0025 54.2962 42.2392 54.5356L50.3583 62.7485C50.5856 62.9784 50.8961 63.1069 51.2195 63.1048C51.5428 63.1027 51.8516 62.9702 52.076 62.7373L60.1951 54.3083C60.4339 54.0603 60.5548 53.7218 60.5269 53.3786C60.499 53.0355 60.3251 52.7209 60.0494 52.5147ZM51.2005 60.1867L44.9194 53.8329C48.6962 51.3605 53.52 51.3294 57.4725 53.6753L51.2005 60.1867ZM62.6302 55.1189C62.4169 54.8432 62.0941 54.6738 61.746 54.655C61.3978 54.6361 61.0587 54.7696 60.8168 55.0207L52.6977 63.4497C52.2459 63.9188 52.2507 64.6627 52.7086 65.1259L61.0414 73.5549C61.2846 73.8009 61.6221 73.93 61.9674 73.9091C62.3127 73.8881 62.6322 73.7192 62.8439 73.4456C67.0463 68.0138 66.7881 60.4932 62.6302 55.1189ZM41.382 55.2257C41.1379 54.9788 40.7988 54.8497 40.4523 54.8718C40.1058 54.8939 39.7858 55.065 39.575 55.3409C35.6156 60.524 35.6199 68.0205 39.3407 73.1956C39.5453 73.4803 39.8642 73.6612 40.2135 73.6908C40.5628 73.7205 40.9076 73.5959 41.1573 73.3498L49.4901 65.1369C49.717 64.9133 49.8457 64.6086 49.8477 64.29C49.8498 63.9715 49.7251 63.6652 49.5012 63.4386L41.382 55.2257ZM61.7285 70.8362L55.2386 64.2714L61.5303 57.7395C64.0252 61.7791 64.1486 66.8366 61.7285 70.8362ZM40.533 70.5953C38.4194 66.7505 38.4427 61.785 40.7041 57.9537L46.9495 64.2712L40.533 70.5953ZM51.862 66.043C51.6377 65.8103 51.3289 65.6779 51.0056 65.6758C50.6824 65.6738 50.3719 65.8022 50.1446 66.0322L41.8119 74.4612C41.572 74.7038 41.4467 75.0371 41.4675 75.3777C41.4882 75.7182 41.6529 76.0339 41.9204 76.2457C47.2687 80.4796 54.7067 80.4765 60.0494 76.482C60.3252 76.2758 60.4991 75.9611 60.5269 75.6179C60.5547 75.2747 60.4338 74.9361 60.1948 74.6882L51.862 66.043ZM57.4705 75.32C53.4896 77.6663 48.4821 77.6442 44.5118 75.1438L50.9872 68.5937L57.4705 75.32Z" fill="#1C1C1C"/>
</svg>
