<svg width="60" height="60" viewBox="0 0 60 60" fill="none" xmlns="http://www.w3.org/2000/svg">
<circle cx="30" cy="30" r="30" fill="#FFD500"/>
<g clip-path="url(#clip0)">
<path d="M28.0291 26.1376L22.1668 20.2753L21.7158 18.4715L18.5592 16.6677L16.7554 18.4715L18.5592 21.6281L20.363 22.0791L26.2253 27.9414M23.0687 32.9019C21.7158 32.6012 18.6494 32.6313 17.2063 35.1566C15.7633 37.6819 16.7554 40.1168 18.1082 41.4697C19.2668 42.6282 22.9715 43.8216 25.3234 41.4697C26.7509 40.0422 27.1272 38.313 26.6763 36.5092L36.5972 26.5886C37.7997 26.7389 39.7538 26.5884 41.1067 25.2355C42.3821 23.9601 43.3614 22.5298 42.9105 20.2753L39.7538 23.4319L37.0481 22.53L36.1462 19.8243L39.3029 16.6675C38.401 16.2165 35.2443 16.6676 33.8915 18.4714C32.6293 20.1543 32.8667 22.2019 32.9896 22.9809L23.0687 32.9019Z" stroke="#2E2E33" stroke-linejoin="round"/>
<path d="M34.7935 24.7846L24.8726 34.7055M33.6333 29.2941L35.2444 30.647C34.7935 30.9476 34.14 31.7973 34.7935 32.4508C35.4469 33.1042 36.2966 32.4508 36.5973 31.9998L42.4596 37.8622M42.4596 37.8622C43.0609 38.4634 43.6215 40.3078 42.0087 41.9207C40.3958 43.5336 38.4011 42.8226 37.9501 42.3717M42.4596 37.8622L37.9501 42.3717M37.9501 42.3717L32.0878 36.5093C32.3884 36.2087 33.148 35.3148 32.5387 34.7055C31.9294 34.0962 30.8852 34.7055 30.7349 35.1565L29.5747 33.8036M34.7935 34.7055L39.303 39.215" stroke="#2E2E33" stroke-linejoin="round"/>
<path d="M24.4217 37.8622L23.0688 35.6074H20.3631L19.0103 37.8622L20.3631 40.1169H23.0688L24.4217 37.8622Z" stroke="#2E2E33" stroke-linejoin="round"/>
</g>
<defs>
<clipPath id="clip0">
<rect width="32.3077" height="32.3077" fill="white" transform="translate(13.8462 13.8461)"/>
</clipPath>
</defs>
</svg>
