<svg width="48" height="62" viewBox="0 0 48 62" fill="none" xmlns="http://www.w3.org/2000/svg">
<g filter="url(#filter0_d)">
<path d="M42 20C42 29.4684 34.6894 40.8578 25.4049 50.5598C24.638 51.3611 23.362 51.3611 22.5951 50.5598C13.3106 40.8578 6 29.4684 6 20C6 10.0589 14.0589 2 24 2C33.9411 2 42 10.0589 42 20Z" fill="white"/>
</g>
<mask id="mask0" mask-type="alpha" maskUnits="userSpaceOnUse" x="6" y="2" width="36" height="50">
<path d="M42 20C42 29.4684 34.6894 40.8578 25.4049 50.5598C24.638 51.3611 23.362 51.3611 22.5951 50.5598C13.3106 40.8578 6 29.4684 6 20C6 10.0589 14.0589 2 24 2C33.9411 2 42 10.0589 42 20Z" fill="white"/>
</mask>
<g mask="url(#mask0)">
<path d="M16.881 21.9482L8.06445 30.7889H14.5894L23.403 21.9482H16.881Z" fill="#0050B4"/>
<path d="M21.2803 11L10.3682 21.9423V28.4914L27.8053 11H21.2803Z" fill="#FFD500"/>
<path d="M8.21881 11L-2.69336 21.9423V28.4914L14.7438 11H8.21881Z" fill="#FFD500"/>
<path d="M3.81356 21.9482L-5 30.7889H1.52197L10.3385 21.9482H3.81356Z" fill="#0050B4"/>
<path d="M47.2056 11L36.2935 21.9423V28.4914L53.7306 11H47.2056Z" fill="#FFD500"/>
<path d="M34.1709 11L23.4517 21.7493V28.2985L40.6958 11H34.1709Z" fill="#FFD500"/>
<path d="M42.8184 21.9482L34.0049 30.7889H40.5269L49.3434 21.9482H42.8184Z" fill="#0050B4"/>
<path d="M29.7838 21.9482L20.9702 30.7889H27.4922L36.3088 21.9482H29.7838Z" fill="#0050B4"/>
</g>
<defs>
<filter id="filter0_d" x="0" y="0" width="48" height="61.1608" filterUnits="userSpaceOnUse" color-interpolation-filters="sRGB">
<feFlood flood-opacity="0" result="BackgroundImageFix"/>
<feColorMatrix in="SourceAlpha" type="matrix" values="0 0 0 0 0 0 0 0 0 0 0 0 0 0 0 0 0 0 127 0" result="hardAlpha"/>
<feOffset dy="4"/>
<feGaussianBlur stdDeviation="3"/>
<feColorMatrix type="matrix" values="0 0 0 0 0 0 0 0 0 0 0 0 0 0 0 0 0 0 0.06 0"/>
<feBlend mode="normal" in2="BackgroundImageFix" result="effect1_dropShadow"/>
<feBlend mode="normal" in="SourceGraphic" in2="effect1_dropShadow" result="shape"/>
</filter>
</defs>
</svg>
