<svg width="60" height="60" viewBox="0 0 60 60" fill="none" xmlns="http://www.w3.org/2000/svg">
<path d="M0 30C0 13.4315 13.4315 0 30 0C46.5685 0 60 13.4315 60 30C60 46.5685 46.5685 60 30 60C13.4315 60 0 46.5685 0 30Z" fill="#FFD500"/>
<rect x="12.5" y="32.5" width="19.061" height="11.839" rx="1.5" stroke="#2E2E33"/>
<rect x="19.7217" y="44.5365" width="4.61707" height="1.40732" stroke="#2E2E33"/>
<rect x="17.8178" y="45.842" width="8.42561" height="0.40122" stroke="#2E2E33" stroke-width="0.40122"/>
<rect x="35.6172" y="16.3098" width="9.62927" height="7.22195" stroke="#2E2E33"/>
<path d="M40.4315 13.1L46.0486 16.3098H34.8145L40.4315 13.1Z" stroke="#2E2E33" stroke-linejoin="round"/>
<path d="M28.4999 30.0128C28.5002 30.289 28.7244 30.5126 29.0005 30.5122L33.5005 30.5068C33.7767 30.5064 34.0002 30.2823 33.9999 30.0062C33.9996 29.73 33.7754 29.5064 33.4993 29.5068L29.4993 29.5116L29.4945 25.5116C29.4941 25.2355 29.27 25.0119 28.9939 25.0122C28.7177 25.0126 28.4941 25.2367 28.4945 25.5128L28.4999 30.0128ZM33.646 24.6469L28.6459 29.6591L29.3539 30.3653L34.354 25.3531L33.646 24.6469Z" fill="#2E2E33"/>
<path d="M42.6544 34.453L43.0995 34.6809L42.6544 34.453ZM36.5324 38.0637C36.4327 38.3212 36.5606 38.6108 36.8181 38.7105L41.0143 40.3358C41.2718 40.4356 41.5614 40.3077 41.6611 40.0502C41.7609 39.7927 41.633 39.5031 41.3755 39.4033L37.6455 37.9586L39.0902 34.2286C39.1899 33.9711 39.062 33.6815 38.8045 33.5818C38.547 33.4821 38.2574 33.61 38.1577 33.8675L36.5324 38.0637ZM42.1715 28.4934C42.6114 29.6488 43.2625 32.1679 42.2093 34.2252L43.0995 34.6809C44.359 32.2206 43.5641 29.3406 43.1061 28.1377L42.1715 28.4934ZM42.2093 34.2252C41.6077 35.4003 40.6644 36.1194 39.6605 36.6308C39.1566 36.8874 38.6431 37.0889 38.152 37.2702C37.6732 37.447 37.1889 37.6137 36.7967 37.7869L37.2006 38.7017C37.555 38.5452 37.9847 38.398 38.4984 38.2083C38.9998 38.0232 39.5573 37.8056 40.1143 37.5219C41.2321 36.9525 42.37 36.1057 43.0995 34.6809L42.2093 34.2252Z" fill="#2E2E33"/>
<path d="M22.6545 20.3907L23.0072 20.7451L22.6545 20.3907ZM21.4565 29.1069C21.296 29.3316 20.9837 29.3836 20.759 29.2231L17.0972 26.6076C16.8725 26.4471 16.8204 26.1348 16.9809 25.9101C17.1414 25.6854 17.4537 25.6334 17.6784 25.7939L20.9334 28.1188L23.2583 24.8638C23.4188 24.6391 23.7311 24.5871 23.9558 24.7476C24.1805 24.9081 24.2325 25.2203 24.072 25.445L21.4565 29.1069ZM29.8764 18.8846C29.0612 18.8846 27.8357 18.858 26.5489 19.0854C25.2626 19.3128 23.9709 19.7858 23.0072 20.7451L22.3017 20.0363C23.4667 18.8767 24.9836 18.3467 26.3748 18.1007C27.7656 17.8549 29.0868 17.8846 29.8764 17.8846L29.8764 18.8846ZM23.0072 20.7451C20.7614 22.9806 21.1364 26.2957 21.5428 28.7341L20.5564 28.8985C20.1604 26.5223 19.6471 22.6788 22.3017 20.0363L23.0072 20.7451Z" fill="#2E2E33"/>
</svg>
