<svg width="60" height="60" viewBox="0 0 60 60" fill="none" xmlns="http://www.w3.org/2000/svg">
<rect width="60" height="60" rx="30" fill="#FFD500"/>
<path d="M44.4911 42.0136V40.9651C44.4911 40.4089 44.2702 39.8755 43.8771 39.4822C43.484 39.0889 42.9508 38.868 42.3949 38.868H38.7266C38.1706 38.868 37.6374 39.0889 37.2443 39.4822C36.8512 39.8755 36.6304 40.4089 36.6304 40.9651V42.0136" stroke="#2E2E33" stroke-linejoin="round"/>
<path d="M40.5605 37.2952C41.7182 37.2952 42.6567 36.3563 42.6567 35.1981C42.6567 34.0399 41.7182 33.101 40.5605 33.101C39.4029 33.101 38.4644 34.0399 38.4644 35.1981C38.4644 36.3563 39.4029 37.2952 40.5605 37.2952Z" stroke="#2E2E33" stroke-linejoin="round"/>
<path d="M24.0531 42.0136V40.9651C24.0531 40.4089 23.8322 39.8755 23.4391 39.4822C23.046 39.0889 22.5129 38.868 21.9569 38.868H18.2886C17.7326 38.868 17.1995 39.0889 16.8063 39.4822C16.4132 39.8755 16.1924 40.4089 16.1924 40.9651V42.0136" stroke="#2E2E33" stroke-linejoin="round"/>
<path d="M20.1226 37.2952C21.2803 37.2952 22.2188 36.3563 22.2188 35.1981C22.2188 34.0399 21.2803 33.101 20.1226 33.101C18.9649 33.101 18.0264 34.0399 18.0264 35.1981C18.0264 36.3563 18.9649 37.2952 20.1226 37.2952Z" stroke="#2E2E33" stroke-linejoin="round"/>
<path d="M34.5341 24.7127V23.6641C34.5341 23.108 34.3132 22.5746 33.9201 22.1813C33.527 21.788 32.9938 21.5671 32.4379 21.5671H28.7695C28.2136 21.5671 27.6804 21.788 27.2873 22.1813C26.8942 22.5746 26.6733 23.108 26.6733 23.6641V24.7127" stroke="#2E2E33" stroke-linejoin="round"/>
<path d="M30.604 19.9942C31.7617 19.9942 32.7002 19.0553 32.7002 17.8972C32.7002 16.739 31.7617 15.8001 30.604 15.8001C29.4463 15.8001 28.5078 16.739 28.5078 17.8972C28.5078 19.0553 29.4463 19.9942 30.604 19.9942Z" stroke="#2E2E33" stroke-linejoin="round"/>
<path d="M38.2385 22.8253L38.6018 22.4819V22.4819L38.2385 22.8253ZM40.5078 26.3497L40.9709 26.1612V26.1612L40.5078 26.3497ZM40.993 31.0108C41.1883 31.2061 41.5049 31.2061 41.7001 31.0108L44.8821 27.8288C45.0774 27.6336 45.0774 27.317 44.8821 27.1217C44.6869 26.9265 44.3703 26.9265 44.175 27.1217L41.3466 29.9502L38.5182 27.1217C38.3229 26.9265 38.0063 26.9265 37.8111 27.1217C37.6158 27.317 37.6158 27.6336 37.8111 27.8288L40.993 31.0108ZM21.9206 22.8253L21.5573 22.4819L21.9206 22.8253ZM26.3415 20.3778C26.4568 20.1269 26.3469 19.83 26.096 19.7147L22.0071 17.8356C21.7562 17.7202 21.4593 17.8302 21.344 18.0811C21.2287 18.332 21.3386 18.6289 21.5895 18.7442L25.2241 20.4145L23.5537 24.0491C23.4384 24.3 23.5484 24.5969 23.7993 24.7122C24.0502 24.8275 24.3471 24.7176 24.4624 24.4667L26.3415 20.3778ZM19.6513 26.3497L20.099 26.5724L20.1073 26.5556L20.1144 26.5382L19.6513 26.3497ZM25.6903 40.5054C25.4365 40.6142 25.3188 40.9081 25.4276 41.1619L27.1996 45.2983C27.3083 45.5522 27.6023 45.6698 27.8561 45.561C28.1099 45.4523 28.2275 45.1584 28.1188 44.9046L26.5437 41.2277L30.2205 39.6526C30.4743 39.5439 30.5919 39.2499 30.4832 38.9961C30.3745 38.7423 30.0805 38.6247 29.8267 38.7334L25.6903 40.5054ZM37.8751 23.1688C38.7919 24.1387 39.5323 25.2793 40.0447 26.5382L40.9709 26.1612C40.4112 24.7861 39.6027 23.5408 38.6018 22.4819L37.8751 23.1688ZM40.0447 26.5382C40.5614 27.8077 40.8466 29.1982 40.8466 30.6573H41.8466C41.8466 29.0669 41.5356 27.5485 40.9709 26.1612L40.0447 26.5382ZM34.8524 20.9231C35.9874 21.49 37.0096 22.2531 37.8751 23.1688L38.6018 22.4819C37.657 21.4823 36.5404 20.6484 35.2992 20.0285L34.8524 20.9231ZM22.284 23.1688C23.4155 21.9717 24.5031 21.2147 26.0608 20.6379L25.7136 19.7001C23.9988 20.335 22.7844 21.1836 21.5573 22.4819L22.284 23.1688ZM19.3057 31.446C19.1733 30.6514 19.2371 29.6958 19.4086 28.7894C19.58 27.8838 19.8504 27.0721 20.099 26.5724L19.2037 26.127C18.9046 26.7282 18.6099 27.6319 18.4261 28.6034C18.2424 29.5742 18.1606 30.6574 18.3193 31.6104L19.3057 31.446ZM20.1144 26.5382C20.6268 25.2793 21.3673 24.1387 22.284 23.1688L21.5573 22.4819C20.5565 23.5408 19.7479 24.7861 19.1882 26.1612L20.1144 26.5382ZM34.8524 40.3915C33.3957 41.1191 32.1547 41.5136 30.458 41.5136V42.5136C32.3498 42.5136 33.7446 42.0626 35.2992 41.2861L34.8524 40.3915ZM30.458 41.5136C28.7638 41.5136 27.3714 41.0204 26.0729 40.5008L25.7014 41.4292C27.0231 41.9582 28.5636 42.5136 30.458 42.5136V41.5136Z" fill="#2E2E33"/>
</svg>
