<svg width="120" height="120" viewBox="0 0 120 120" fill="none" xmlns="http://www.w3.org/2000/svg">
<path d="M0 60C0 26.8629 26.8629 0 60 0C93.1371 0 120 26.8629 120 60C120 93.1371 93.1371 120 60 120C26.8629 120 0 93.1371 0 60Z" fill="#FFD500"/>
<path fill-rule="evenodd" clip-rule="evenodd" d="M56.6906 28.9755L56.0658 30C56.6906 28.9755 56.6901 28.9753 56.6906 28.9755L56.6967 28.9793L56.7099 28.9874L56.7572 29.0168C56.7979 29.0421 56.8565 29.079 56.9321 29.1273C57.0831 29.2237 57.3015 29.3656 57.5778 29.5512C58.1301 29.9223 58.9143 30.4688 59.8531 31.1773C61.7287 32.5927 64.2318 34.6625 66.7387 37.2802C71.7221 42.4841 76.8782 50.0202 76.8782 58.999C76.8782 65.4163 74.6677 69.4281 72.3581 71.8395C71.2149 73.0331 70.0679 73.8136 69.1975 74.2989C68.762 74.5417 68.394 74.7115 68.1279 74.8229C67.9947 74.8786 67.8868 74.9199 67.8082 74.9484C67.7689 74.9626 67.737 74.9737 67.7129 74.9818L67.6827 74.9919L67.6721 74.9953L67.6679 74.9966C67.6671 74.9969 67.6646 74.9977 67.3048 73.8529C66.4607 74.7057 66.4604 74.7054 66.46 74.7051L66.4569 74.702L66.4506 74.6957L66.4302 74.6752C66.4133 74.6581 66.3899 74.6341 66.3602 74.6033C66.301 74.5418 66.2172 74.4532 66.1123 74.3385C65.9027 74.1091 65.6087 73.7749 65.2592 73.3436C64.5609 72.4819 63.6371 71.2276 62.7219 69.6429C61.1568 66.9329 59.5945 63.2173 59.2635 58.8267C56.9834 60.7177 55.526 63.4348 54.604 66.1627C53.4741 69.5052 53.2092 72.6879 53.1577 73.9037C53.1421 74.2699 52.9601 74.6089 52.6635 74.8241C52.3669 75.0393 51.9881 75.1072 51.6352 75.0084C47.1578 73.755 44.4014 69.7412 43.4774 65.2181C42.551 60.6833 43.3985 55.4054 46.3532 51.233L46.3626 51.2197C51.3835 44.3291 53.4929 38.9891 54.3593 35.4286C54.7928 33.6472 54.9166 32.3052 54.9363 31.43C54.9462 30.992 54.93 30.67 54.9131 30.4672C54.9047 30.3658 54.8961 30.2941 54.8905 30.2526C54.8877 30.2318 54.8857 30.2186 54.8848 30.213L54.8853 30.2157C54.8849 30.2135 54.8848 30.213 54.8845 30.2108C54.8018 29.7479 54.9973 29.279 55.385 29.0119C55.7749 28.7432 56.2863 28.729 56.6906 28.9755ZM67.3048 73.8529L66.46 74.7051C66.7762 75.018 67.2402 75.131 67.6646 74.9977L67.3048 73.8529ZM67.6164 72.4193C67.7406 72.3581 67.8789 72.2863 68.0288 72.2027C68.7284 71.8126 69.6747 71.1714 70.6249 70.1794C72.502 68.2196 74.4782 64.8044 74.4782 58.999C74.4782 50.9396 69.8281 43.9763 65.0053 38.9402C62.6091 36.438 60.2091 34.4526 58.4074 33.093C58.0048 32.7892 57.6327 32.517 57.2977 32.2777C57.2278 33.249 57.057 34.4931 56.6913 35.996C55.7421 39.8969 53.4859 45.5177 48.3072 52.6265C45.7719 56.2109 45.0241 60.7985 45.8288 64.7377C46.5184 68.1131 48.2984 70.8448 50.8842 72.1539C51.0611 70.454 51.4576 67.9761 52.3303 65.3941C53.5542 61.7736 55.7764 57.7702 59.8297 55.5515C60.2061 55.3454 60.6639 55.3561 61.0304 55.5794C61.3968 55.8027 61.6161 56.2047 61.6055 56.6338C61.4869 61.4301 63.1141 65.5233 64.8002 68.4426C65.6412 69.8988 66.4893 71.0495 67.1238 71.8326C67.3082 72.0602 67.4742 72.2562 67.6164 72.4193ZM39.2292 81.8448C38.9408 81.8448 38.6608 81.9608 38.4519 82.1726C38.2424 82.3849 38.1218 82.6764 38.1218 82.9836V88.8001H81.8755V82.9836C81.8755 82.6764 81.7549 82.3849 81.5454 82.1726C81.3365 81.9608 81.0565 81.8448 80.7681 81.8448H39.2292ZM29.9998 91.2001C29.3371 91.2001 28.7998 90.6628 28.7998 90.0001C28.7998 89.3373 29.3371 88.8001 29.9998 88.8001H35.7218V82.9836C35.7218 82.0503 36.0874 81.1519 36.7434 80.4871C37.3998 79.8216 38.2937 79.4448 39.2292 79.4448H80.7681C81.7036 79.4448 82.5975 79.8216 83.2539 80.4871C83.9099 81.1519 84.2755 82.0503 84.2755 82.9836V88.8001H89.9998C90.6626 88.8001 91.1998 89.3373 91.1998 90.0001C91.1998 90.6628 90.6626 91.2001 89.9998 91.2001H29.9998Z" fill="#1C1C1C"/>
</svg>
