<svg width="60" height="60" viewBox="0 0 60 60" fill="none" xmlns="http://www.w3.org/2000/svg">
<path d="M0 30C0 13.4315 13.4315 0 30 0C46.5685 0 60 13.4315 60 30C60 46.5685 46.5685 60 30 60C13.4315 60 0 46.5685 0 30Z" fill="#FFD500"/>
<circle cx="32.4162" cy="31.992" r="11.884" stroke="#2E2E33"/>
<circle cx="32.4159" cy="31.992" r="9.58" stroke="#2E2E33"/>
<rect x="28.02" y="15.5" width="9.368" height="1.88" rx="0.94" stroke="#2E2E33"/>
<line x1="35.5078" y1="17.88" x2="35.5078" y2="20.184" stroke="#2E2E33"/>
<line x1="33.2041" y1="24.216" x2="33.2041" y2="26.52" stroke="#2E2E33"/>
<line x1="33.2041" y1="37.464" x2="33.2041" y2="39.768" stroke="#2E2E33"/>
<line x1="37.8877" y1="31.7801" x2="40.1917" y2="31.7801" stroke="#2E2E33"/>
<line x1="33.5024" y1="30.6756" x2="36.9584" y2="27.2196" stroke="#2E2E33"/>
<line x1="31.1987" y1="30.9056" x2="28.3187" y2="28.0256" stroke="#2E2E33"/>
<line x1="24.6396" y1="31.7801" x2="26.9436" y2="31.7801" stroke="#2E2E33"/>
<line x1="19.4561" y1="23.14" x2="24.0641" y2="23.14" stroke="#2E2E33"/>
<line x1="16" y1="27.748" x2="21.184" y2="27.748" stroke="#2E2E33"/>
<line x1="18.3042" y1="32.356" x2="20.6082" y2="32.356" stroke="#2E2E33"/>
<line x1="16.5757" y1="38.692" x2="22.3357" y2="38.692" stroke="#2E2E33"/>
<line x1="30.3237" y1="17.88" x2="30.3237" y2="20.184" stroke="#2E2E33"/>
<circle cx="32.4159" cy="31.992" r="1.516" stroke="#2E2E33"/>
</svg>
