<svg width="60" height="60" viewBox="0 0 60 60" fill="none" xmlns="http://www.w3.org/2000/svg">
<path d="M0 30C0 13.4315 13.4315 0 30 0C46.5685 0 60 13.4315 60 30C60 46.5685 46.5685 60 30 60C13.4315 60 0 46.5685 0 30Z" fill="#FFD500"/>
<path d="M39.2896 38.1V39.2245C39.2896 41.4336 37.4987 43.2245 35.2896 43.2245H21.7998C19.5907 43.2245 17.7998 41.4336 17.7998 39.2245V30V23.3877M17.7998 23.3877L22.572 17.5143C22.9517 17.0469 23.5219 16.7755 24.1242 16.7755H28.5447H35.2896C37.4987 16.7755 39.2896 18.5663 39.2896 20.7754C39.2896 22.4428 39.2896 24.2726 39.2896 25.5M17.7998 23.3877H19.1723C21.3814 23.3877 23.1723 21.5969 23.1723 19.3877V17.051" stroke="#2E2E33"/>
<rect x="27.1162" y="20.0306" width="8.36735" height="1.7551" rx="0.5" stroke="#2E2E33"/>
<line x1="31.5752" y1="26.6428" x2="21.6568" y2="26.6428" stroke="#2E2E33"/>
<line x1="31.5752" y1="29.3979" x2="21.6568" y2="29.3979" stroke="#2E2E33"/>
<line x1="31.5752" y1="32.1531" x2="21.6568" y2="32.1531" stroke="#2E2E33"/>
<line x1="31.5752" y1="34.9082" x2="21.6568" y2="34.9082" stroke="#2E2E33"/>
<line x1="27.167" y1="38.7653" x2="21.6568" y2="38.7653" stroke="#2E2E33"/>
<path d="M42.4998 30.6C42.4998 32.312 41.1119 33.7 39.3998 33.7C37.6877 33.7 36.2998 32.312 36.2998 30.6C36.2998 28.8879 37.6877 27.5 39.3998 27.5C41.1119 27.5 42.4998 28.8879 42.4998 30.6Z" stroke="#2E2E33"/>
<path d="M43.2114 27.9347L43.6862 27.7779L43.2114 27.9347C43.2758 28.1297 43.3796 28.3094 43.5162 28.4626L43.8644 28.853C43.9575 28.9575 44.0026 29.0963 43.9887 29.2357L43.9365 29.7561C43.916 29.9604 43.9377 30.1668 44.0002 30.3624L44.1595 30.8606C44.2021 30.994 44.1868 31.1391 44.1174 31.2607L43.8581 31.7149C43.7563 31.8933 43.6921 32.0906 43.6697 32.2947L43.6125 32.8146C43.5972 32.9538 43.5242 33.0802 43.4114 33.163L42.9897 33.4725C42.8241 33.594 42.6853 33.7482 42.5818 33.9255L42.3181 34.3772C42.2475 34.4982 42.1294 34.584 41.9926 34.6137L41.4815 34.7249C41.2809 34.7686 41.0913 34.853 40.9246 34.9729L40.5 35.2783L40.7919 35.6842L40.5 35.2783C40.3863 35.36 40.2435 35.3904 40.1064 35.3619L39.5943 35.2556C39.3932 35.2139 39.1858 35.2139 38.9847 35.2556L38.4726 35.3619C38.3355 35.3904 38.1927 35.36 38.079 35.2783L37.6544 34.9729C37.4877 34.853 37.2982 34.7686 37.0975 34.7249L36.5864 34.6137C36.4496 34.584 36.3315 34.4982 36.2609 34.3772L35.8291 34.6293L36.2609 34.3772L35.9972 33.9255C35.8937 33.7482 35.7549 33.594 35.5893 33.4725L35.1677 33.163C35.0548 33.0802 34.9818 32.9538 34.9665 32.8146L34.9093 32.2947C34.8869 32.0906 34.8227 31.8933 34.7209 31.7149L34.4616 31.2607C34.3922 31.1391 34.3769 30.994 34.4195 30.8606L34.5788 30.3624C34.6413 30.1668 34.663 29.9604 34.6425 29.7561L34.5903 29.2357C34.5764 29.0963 34.6215 28.9575 34.7147 28.853L35.0628 28.4626C35.1994 28.3094 35.3032 28.1297 35.3676 27.9347L35.5316 27.4381C35.5755 27.3051 35.6732 27.1966 35.8008 27.1391L36.2776 26.924C36.4648 26.8396 36.6326 26.7177 36.7708 26.5657L37.1226 26.1787C37.2168 26.0751 37.3501 26.0157 37.4902 26.0151L38.0132 26.0125C38.2186 26.0116 38.4215 25.9684 38.6095 25.8858L39.0883 25.6754C39.2165 25.619 39.3625 25.619 39.4907 25.6754L39.9695 25.8858L40.1707 25.4281L39.9695 25.8858C40.1575 25.9684 40.3605 26.0116 40.5658 26.0125L41.0888 26.0151C41.2289 26.0157 41.3622 26.0751 41.4564 26.1787L41.8263 25.8424L41.4564 26.1787L41.8082 26.5657C41.9464 26.7176 42.1142 26.8396 42.3014 26.924L42.7782 27.1391C42.9059 27.1966 43.0035 27.3051 43.0474 27.4381L43.2114 27.9347Z" stroke="#2E2E33"/>
<path d="M41.7691 34.9592V39.9184L39.565 37.7143L37.0854 40.1939V34.9592" stroke="#2E2E33"/>
</svg>
